<svg width="32" height="33" viewBox="0 0 32 33" fill="none" xmlns="http://www.w3.org/2000/svg">
<g clip-path="url(#clip0)">
<path d="M27.3125 0.228516H4.6875C2.10278 0.228516 0 2.3313 0 4.91602V27.541C0 30.1257 2.10278 32.2285 4.6875 32.2285H27.3125C29.8972 32.2285 32 30.1257 32 27.541V4.91602C32 2.3313 29.8972 0.228516 27.3125 0.228516ZM30.125 27.541C30.125 29.0918 28.8633 30.3535 27.3125 30.3535H4.6875C3.13672 30.3535 1.875 29.0918 1.875 27.541V4.91602C1.875 3.36523 3.13672 2.10352 4.6875 2.10352H27.3125C28.8633 2.10352 30.125 3.36523 30.125 4.91602V27.541Z" fill="white"/>
<path d="M5.6875 26.6035H11.3125V13.3535H5.6875V26.6035ZM7.5625 15.2285H9.4375V24.7285H7.5625V15.2285Z" fill="white"/>
<path d="M20.6929 13.3535C20.6912 13.3535 20.6892 13.3535 20.6875 13.3535C20.0393 13.3535 19.408 13.4619 18.8125 13.6724V13.3535H13.1875V26.6035H18.8125V19.916C18.8125 19.3992 19.2332 18.9785 19.75 18.9785C20.2668 18.9785 20.6875 19.3992 20.6875 19.916V26.6035H26.3125V19.2715C26.3125 16.2373 23.8511 13.3564 20.6929 13.3535ZM24.4375 24.7285H22.5625V19.916C22.5625 18.3652 21.3008 17.1035 19.75 17.1035C18.1992 17.1035 16.9377 18.3652 16.9375 19.9158V24.7285H15.0625V15.2285H16.9375V17.1047L18.438 15.9778C19.0906 15.4875 19.8684 15.2285 20.6875 15.2285H20.6912C22.6868 15.2305 24.4375 17.1196 24.4375 19.2715V24.7285Z" fill="white"/>
<path d="M5.6875 11.4785H11.3125V5.85352H5.6875V11.4785ZM7.5625 7.72852H9.4375V9.60352H7.5625V7.72852Z" fill="white"/>
</g>
<defs>
<clipPath id="clip0">
<rect y="0.228516" width="32" height="32" fill="white"/>
</clipPath>
</defs>
</svg>
