<svg width="159" height="97" viewBox="0 0 159 97" fill="none" xmlns="http://www.w3.org/2000/svg">
<path d="M24.9868 1.58236V18.7529H10.8916V1.58236H0.640625V46.4305H10.8916V28.6194H24.9868V46.4305H35.2378V1.58236H24.9868ZM99.7237 47.3274C107.925 47.3274 115.1 43.2912 118.944 36.9485L110.103 31.8228C108.181 35.2825 104.273 37.3329 99.7237 37.3329C91.7794 37.3329 86.6537 32.0149 86.6537 24.0065C86.6537 15.9977 91.7794 10.68 99.7237 10.68C104.273 10.68 108.117 12.7304 110.103 16.1901L118.944 11.0644C115.036 4.72168 107.86 0.685547 99.7237 0.685547C86.2052 0.685547 76.4028 10.8083 76.4028 24.0065C76.4028 37.2047 86.2052 47.3274 99.7237 47.3274ZM157.894 46.4305L142.133 23.43L157.253 1.58236H145.593L131.882 21.0592V1.58236H121.631V46.4305H131.882V25.6721L146.234 46.4305H157.894Z" fill="white"/>
<path d="M24.9868 51.1855V68.3561H10.8916V51.1855H0.640625V96.0337H10.8916V78.2226H24.9868V96.0337H35.2378V51.1855H24.9868ZM48.0452 86.1672V78.2226H64.0624V68.484H48.0452V61.0521H65.664V51.1855H37.7939V96.0337H65.9843V86.1672H48.0452ZM78.6919 86.1672V51.1855H68.4409V96.0337H94.7091V86.1672H78.6919ZM114.085 51.1855H97.1067V96.0337H107.358V81.9387H114.085C122.926 81.9387 129.782 75.0833 129.782 66.5621C129.782 58.041 122.926 51.1855 114.085 51.1855ZM114.085 72.3284H107.358V60.7959H114.085C117.224 60.7959 119.531 63.2946 119.531 66.5621C119.531 69.8297 117.224 72.3284 114.085 72.3284Z" fill="#FF7A00"/>
<path d="M125.035 86.5089V90.1567H122.041V86.5089H119.863V96.0367H122.041V92.2528H125.035V96.0367H127.213V86.5089H125.035ZM131.631 93.9406V92.2528H135.034V90.1839H131.631V88.605H135.374V86.5089H129.454V96.0367H135.443V93.9406H131.631ZM143.673 86.5089H136.596V88.605H139.046V96.0367H141.223V88.605H143.673V86.5089ZM145.232 86.5089V96.0367H147.409V86.5089H145.232ZM154.197 96.2272C155.94 96.2272 157.464 95.3697 158.281 94.0222L156.402 92.9333C155.994 93.6683 155.164 94.1039 154.197 94.1039C152.51 94.1039 151.421 92.9742 151.421 91.2728C151.421 89.5714 152.51 88.4417 154.197 88.4417C155.164 88.4417 155.98 88.8772 156.402 89.6122L158.281 88.5234C157.45 87.1759 155.926 86.3184 154.197 86.3184C151.325 86.3184 149.243 88.4689 149.243 91.2728C149.243 94.0767 151.325 96.2272 154.197 96.2272Z" fill="white"/>
<path d="M74.0049 29.2235H69.372V19.2956H58.6498V29.2235H48.9865L63.7461 0.101562H52.3621L37.6025 29.2235V39.0189H58.6498V46.4318H69.372V39.0189H74.0049V29.2235Z" fill="#FF7A00"/>
</svg>
