<svg width="94" height="38" viewBox="0 0 94 38" fill="none" xmlns="http://www.w3.org/2000/svg">
<path d="M28.7653 0.41748H25.7217V9.57732H28.7653V0.41748Z" fill="#4E4E56"/>
<path d="M34.8317 0.41748H31.7881V9.57732H34.8317V0.41748Z" fill="#4E4E56"/>
<path d="M16.485 12.6201H13.4414V21.7799H16.485V12.6201Z" fill="#4E4E56"/>
<path d="M22.5514 12.6201H19.5078V21.7799H22.5514V12.6201Z" fill="#4E4E56"/>
<path d="M4.21843 24.8403H1.1748V34.0002H4.21843V24.8403Z" fill="#4E4E56"/>
<path d="M10.2887 24.8403H7.24512V34.0002H10.2887V24.8403Z" fill="#4E4E56"/>
<path d="M5.71442 9.9948C2.97692 9.9948 0.746094 7.75172 0.746094 4.99563C0.746094 2.23954 2.97692 0 5.71442 0C8.45193 0 10.6828 2.24308 10.6828 4.99563C10.7003 7.75172 8.46952 9.9948 5.71442 9.9948ZM5.71442 2.77024C5.27669 2.77024 4.84878 2.90076 4.48482 3.14528C4.12085 3.38981 3.83718 3.73737 3.66967 4.14401C3.50215 4.55065 3.45832 4.9981 3.54372 5.42978C3.62912 5.86146 3.83991 6.25799 4.14943 6.56922C4.45896 6.88044 4.85332 7.09239 5.28264 7.17826C5.71197 7.26413 6.15697 7.22006 6.56139 7.05162C6.9658 6.88319 7.31146 6.59795 7.55465 6.23199C7.79785 5.86603 7.92765 5.43577 7.92765 4.99563C7.92598 4.40594 7.69226 3.84087 7.27757 3.4239C6.86287 3.00692 6.30089 2.77192 5.71442 2.77024Z" fill="#4E4E56"/>
<path d="M30.275 22.2115C27.5339 22.2115 25.3066 19.9684 25.3066 17.2158C25.3066 14.4633 27.5375 12.2202 30.275 12.2202C33.0125 12.2202 35.2433 14.4633 35.2433 17.2158C35.2433 19.9684 33.016 22.2115 30.275 22.2115ZM30.275 14.9905C29.8372 14.9905 29.4093 15.121 29.0454 15.3655C28.6814 15.61 28.3977 15.9576 28.2302 16.3642C28.0627 16.7709 28.0189 17.2183 28.1043 17.65C28.1897 18.0817 28.4005 18.4782 28.71 18.7894C29.0195 19.1007 29.4139 19.3126 29.8432 19.3985C30.2725 19.4843 30.7175 19.4403 31.1219 19.2718C31.5264 19.1034 31.872 18.8182 32.1152 18.4522C32.3584 18.0862 32.4882 17.656 32.4882 17.2158C32.4741 15.9846 31.4854 14.9905 30.275 14.9905Z" fill="#4E4E56"/>
<path d="M34.8315 30.9395H25.7217V33.9998H34.8315V30.9395Z" fill="#4E4E56"/>
<path d="M34.8315 24.8403H25.7217V27.9007H34.8315V24.8403Z" fill="#4E4E56"/>
<path d="M10.2846 18.7227H1.1748V21.783H10.2846V18.7227Z" fill="#4E4E56"/>
<path d="M10.2846 12.6201H1.1748V15.6805H10.2846V12.6201Z" fill="#4E4E56"/>
<path d="M49.6268 12.7744V15.9763H46.4425V12.7744H43.624V21.9342H46.4425V18.4423H49.6268V21.9342H52.4312V12.7744H49.6268Z" fill="#4E4E56"/>
<path d="M63.5012 14.9538V12.7744H56.1895V21.9342H63.5012V19.7407H58.9305V18.3786H63.5012V16.2027H58.9305V14.9538H63.5012Z" fill="#4E4E56"/>
<path d="M75.0178 12.7744H66.2881V15.1272H69.2649V21.9342H72.0551V15.1272H75.0178V12.7744Z" fill="#4E4E56"/>
<path d="M80.943 12.7886H78.1387V21.9484H80.943V12.7886Z" fill="#4E4E56"/>
<path d="M90.9433 18.3644C90.609 19.1817 89.8595 19.6629 88.9376 19.6629C87.678 19.6629 86.7385 18.7996 86.7385 17.3738C86.7385 15.948 87.678 15.0847 88.9376 15.0847C89.8771 15.0847 90.6266 15.5659 90.9433 16.3973H93.73C93.2832 14.1542 91.3233 12.5869 88.92 12.5869C86.179 12.5869 83.9834 14.6213 83.9834 17.3738C83.9834 20.1264 86.165 22.1607 88.92 22.1607C91.3268 22.1607 93.2691 20.5898 93.73 18.3503L90.9433 18.3644Z" fill="#4E4E56"/>
</svg>
