<svg width="321" height="197" viewBox="0 0 321 197" fill="none" xmlns="http://www.w3.org/2000/svg">
<path d="M50.0916 3.03746V38.2266H21.5232V3.03746H0.746094V94.9494H21.5232V58.4472H50.0916V94.9494H70.8687V3.03746H50.0916ZM201.571 96.7873C218.192 96.7873 232.736 88.5157 240.528 75.5168L222.608 65.0123C218.712 72.1025 210.791 76.3047 201.571 76.3047C185.469 76.3047 175.08 65.406 175.08 48.9934C175.08 32.5806 185.469 21.6824 201.571 21.6824C210.791 21.6824 218.582 25.8842 222.608 32.9745L240.528 22.4702C232.606 9.47131 218.062 1.19922 201.571 1.19922C174.171 1.19922 154.303 21.9451 154.303 48.9934C154.303 76.0419 174.171 96.7873 201.571 96.7873ZM319.473 94.9494L287.528 47.8117L318.174 3.03746H294.54L266.751 42.9535V3.03746H245.974V94.9494H266.751V52.4073L295.838 94.9494H319.473Z" fill="#4E4E56"/>
<path d="M50.0916 104.698V139.887H21.5232V104.698H0.746094V196.61H21.5232V160.107H50.0916V196.61H70.8687V104.698H50.0916ZM96.8271 176.389V160.107H129.291V140.149H96.8271V124.918H132.537V104.698H76.0496V196.61H133.187V176.389H96.8271ZM158.943 176.389V104.698H138.166V196.61H191.407V176.389H158.943ZM230.678 104.698H196.267V196.61H217.044V167.723H230.678C248.598 167.723 262.493 153.674 262.493 136.211C262.493 118.747 248.598 104.698 230.678 104.698ZM230.678 148.028H217.044V124.393H230.678C237.041 124.393 241.716 129.514 241.716 136.211C241.716 142.907 237.041 148.028 230.678 148.028Z" fill="#FF7A00"/>
<path d="M252.872 177.083V184.559H246.803V177.083H242.389V196.61H246.803V188.855H252.872V196.61H257.286V177.083H252.872ZM266.241 192.314V188.855H273.138V184.615H266.241V181.379H273.827V177.083H261.827V196.61H273.965V192.314H266.241ZM290.647 177.083H276.302V181.379H281.268V196.61H285.682V181.379H290.647V177.083ZM293.806 177.083V196.61H298.22V177.083H293.806ZM311.978 197C315.509 197 318.599 195.243 320.254 192.481L316.447 190.25C315.62 191.756 313.937 192.649 311.978 192.649C308.557 192.649 306.35 190.333 306.35 186.846C306.35 183.36 308.557 181.044 311.978 181.044C313.937 181.044 315.592 181.937 316.447 183.443L320.254 181.212C318.571 178.45 315.482 176.693 311.978 176.693C306.157 176.693 301.936 181.1 301.936 186.846C301.936 192.593 306.157 197 311.978 197Z" fill="#4E4E56"/>
<path d="M149.443 59.6825H140.052V39.3362H118.32V59.6825H98.7346L128.65 0H105.576L75.6611 59.6825V79.7574H118.32V94.9494H140.052V79.7574H149.443V59.6825Z" fill="#FF7A00"/>
</svg>
