<svg width="157" height="96" viewBox="0 0 157 96" fill="none" xmlns="http://www.w3.org/2000/svg">
<path d="M24.127 2.2071V19.223H10.1587V2.2071H0V46.6515H10.1587V29.0007H24.127V46.6515H34.2857V2.2071H24.127ZM98.191 47.5403C106.318 47.5403 113.429 43.5405 117.239 37.2548L108.477 32.1753C106.572 35.6038 102.699 37.6358 98.191 37.6358C90.3182 37.6358 85.2388 32.3657 85.2388 24.4293C85.2388 16.4927 90.3182 11.2228 98.191 11.2228C102.699 11.2228 106.509 13.2548 108.477 16.6833L117.239 11.6038C113.366 5.31816 106.254 1.31836 98.191 1.31836C84.7942 1.31836 75.0801 11.3499 75.0801 24.4293C75.0801 37.5087 84.7942 47.5403 98.191 47.5403ZM155.838 46.6515L140.219 23.858L155.203 2.2071H143.647L130.06 21.5086V2.2071H119.902V46.6515H130.06V26.08L144.282 46.6515H155.838Z" fill="white"/>
<path d="M24.127 51.3643V68.3802H10.1587V51.3643H0V95.8087H10.1587V78.1579H24.127V95.8087H34.2857V51.3643H24.127ZM46.9778 86.031V78.1579H62.8508V68.507H46.9778V61.1419H64.4379V51.3643H36.8188V95.8087H64.7554V86.031H46.9778ZM77.3485 86.031V51.3643H67.1899V95.8087H93.2215V86.031H77.3485ZM112.423 51.3643H95.5976V95.8087H105.756V81.8406H112.423C121.185 81.8406 127.978 75.0468 127.978 66.6024C127.978 58.158 121.185 51.3643 112.423 51.3643ZM112.423 72.3168H105.756V60.8881H112.423C115.534 60.8881 117.82 63.3643 117.82 66.6024C117.82 69.8406 115.534 72.3168 112.423 72.3168Z" fill="#FF7A00"/>
<path d="M123.274 86.3695V89.9844H120.307V86.3695H118.148V95.8115H120.307V92.0617H123.274V95.8115H125.432V86.3695H123.274ZM129.811 93.7342V92.0617H133.183V90.0114H129.811V88.4467H133.52V86.3695H127.652V95.8115H133.587V93.7342H129.811ZM141.744 86.3695H134.73V88.4467H137.158V95.8115H139.316V88.4467H141.744V86.3695ZM143.288 86.3695V95.8115H145.447V86.3695H143.288ZM152.173 96.0003C153.9 96.0003 155.411 95.1505 156.22 93.8152L154.359 92.7361C153.954 93.4645 153.131 93.8961 152.173 93.8961C150.501 93.8961 149.422 92.7766 149.422 91.0905C149.422 89.4044 150.501 88.2849 152.173 88.2849C153.131 88.2849 153.94 88.7165 154.359 89.4449L156.22 88.3658C155.397 87.0304 153.886 86.1807 152.173 86.1807C149.327 86.1807 147.264 88.3119 147.264 91.0905C147.264 93.8691 149.327 96.0003 152.173 96.0003Z" fill="white"/>
<path d="M72.7045 29.598H68.1133V19.7595H57.4876V29.598H47.9114L62.538 0.738281H51.2565L36.6299 29.598V39.3052H57.4876V46.6514H68.1133V39.3052H72.7045V29.598Z" fill="#FF7A00"/>
</svg>
